<svg width="39" height="39" fill="none" xmlns="http://www.w3.org/2000/svg"><circle cx="19.318" cy="19.591" r="19.318" fill="#1814F3"/><g clip-path="url(#a)"><path d="m28.853 16.238-1.67 1.67a.435.435 0 0 1-.615 0l-4.021-4.02a.435.435 0 0 1 0-.616l1.67-1.67a1.743 1.743 0 0 1 2.46 0l2.176 2.177a1.736 1.736 0 0 1 0 2.46Zm-7.74-1.532L11.6 24.218l-.768 4.4a.87.87 0 0 0 1.007 1.008l4.4-.772 9.513-9.511a.435.435 0 0 0 0-.616l-4.021-4.02a.44.44 0 0 0-.62 0Zm-5.8 8.697a.505.505 0 0 1 0-.717l5.579-5.578c.199-.2.518-.2.717 0 .2.199.2.518 0 .717l-5.578 5.578c-.2.2-.518.2-.717 0Zm-1.307 3.046h1.739v1.315l-2.337.41-1.126-1.127.41-2.336h1.314v1.738Z" fill="#fff"/></g><defs><clipPath id="a"><path fill="#fff" transform="translate(10.818 11.09)" d="M0 0h18.546v18.546H0z"/></clipPath></defs></svg>