<svg width="30" height="30" fill="none" xmlns="http://www.w3.org/2000/svg"><circle cx="15" cy="15" r="15" fill="#1814F3"/><g clip-path="url(#a)"><path d="m22.587 11.163-1.35 1.35a.352.352 0 0 1-.499 0l-3.252-3.251a.352.352 0 0 1 0-.498l1.351-1.35a1.41 1.41 0 0 1 1.99 0l1.76 1.76c.55.548.55 1.438 0 1.99Zm-6.26-1.24-7.694 7.694-.621 3.56a.704.704 0 0 0 .814.814l3.56-.624 7.693-7.693a.352.352 0 0 0 0-.498l-3.252-3.252a.355.355 0 0 0-.5 0Zm-4.691 7.035a.408.408 0 0 1 0-.58l4.512-4.512a.409.409 0 0 1 .58 0 .409.409 0 0 1 0 .58l-4.512 4.512a.409.409 0 0 1-.58 0Zm-1.058 2.464h1.407v1.063l-1.89.332-.911-.912.33-1.89h1.064v1.407Z" fill="#fff"/></g><defs><clipPath id="a"><path fill="#fff" transform="translate(8 7)" d="M0 0h15v15H0z"/></clipPath></defs></svg>